<svg width="98" height="27" xmlns="http://www.w3.org/2000/svg" viewBox="0 0 630.24 142.58">
    <g id="Layer_2" data-name="Layer 2">
        <g id="Layer_1-2" data-name="Layer 1">
            <path fill="#009b4c"
                d="M36.05,11.56V36H61.34V65.26h27V36h25.29v82.51h26.73V23.84A12.28,12.28,0,0,0,128,11.56Z" />
            <path fill="#009b4c"
                d="M88,118.24V91.1H62v27.14H36.05V36H8v93.52a13.09,13.09,0,0,0,13.09,13.09h92.46V118.24Z" />
            <rect fill="#b70000" width="26.31" height="26.31" />
            <path fill="#009b4c"
                d="M207.19,99.41H194.92V78.28H177.4V99.41H165.14V47.06H177.4V67.6h17.52V47.06h12.27Z" />
            <path fill="#009b4c"
                d="M269.35,99.41H255.58l-4.59-12H230.53l-4.45,12H212.87l21.9-52.35h12.47ZM246.82,76.57l-6.24-15.95-6,15.95Z" />
            <path fill="#009b4c"
                d="M310,99.38H295.77q-7,0-10.7-1.28a14.91,14.91,0,0,1-6.36-4.36,19.66,19.66,0,0,1-2.24-2.95A14.1,14.1,0,0,1,275,87.53,32.67,32.67,0,0,1,273.87,78V47.06h12.37V77.65c0,1.24,0,2.39.07,3.44a12.49,12.49,0,0,0,.21,2.59,6.81,6.81,0,0,0,1.16,2.42A5.57,5.57,0,0,0,289,87.46a6.3,6.3,0,0,0,2,1,19,19,0,0,0,5.75.74H310Z" />
            <path fill="#009b4c"
                d="M366.84,73.2q0,13.71-6.41,20.47T341,100.46q-13.35,0-19.59-6.78t-6.24-21q0-13.42,6.38-20T341,46.15q13.14,0,19.52,6.66T366.84,73.2Zm-13.21,0q0-8.61-3.09-12.72t-9.56-4q-6.32,0-9.46,3.92a14.68,14.68,0,0,0-2.37,5.12,29.2,29.2,0,0,0-.79,7.25q0,9,3.09,13t9.53,4.1q6.3,0,9.49-4.1T353.63,73.2Z" />
            <path fill="#009b4c"
                d="M416.42,99.38H397.67a34.29,34.29,0,0,1-9.39-1,18.68,18.68,0,0,1-6.76-3.64,20.58,20.58,0,0,1-6-8.45,33.43,33.43,0,0,1-2-12.16q0-13.77,5.95-20.43T398,47.06h18.47V57.54H398.16a14,14,0,0,0-5.22.84,8.73,8.73,0,0,0-3.43,2.91q-2.67,3.85-2.66,13.28,0,8,2.52,11.11t8.79,3.08h18.26Z" />
            <path fill="#009b4c"
                d="M475.29,73.2q0,13.71-6.41,20.47t-19.45,6.79q-13.35,0-19.59-6.78t-6.23-21q0-13.42,6.37-20t19.45-6.52q13.14,0,19.52,6.66T475.29,73.2Zm-13.21,0q0-8.61-3.08-12.72t-9.57-4q-6.3,0-9.46,3.92a14.68,14.68,0,0,0-2.37,5.12,29.24,29.24,0,0,0-.78,7.25q0,9,3.08,13t9.53,4.1q6.31,0,9.5-4.1T462.08,73.2Z" />
            <path fill="#009b4c"
                d="M543.24,99.41H531.18l.74-34.34L520.7,99.41H508.3L496.74,64.58l.84,34.83H485.17V47.06H502.1l12.16,36.76,12-36.76h16.93Z" />
            <path fill="#b70000"
                d="M614.4,99.09H600.47l-4.64-12.15H575.14l-4.5,12.15H557.28l22.14-52.94H592ZM591.61,76l-6.3-16.13-6,16.13Z" />
            <rect fill="#b70000" x="617.31" y="46.15" width="12.93" height="52.94" />
        </g>
    </g>
</svg>